<?xml version="1.0" standalone="no"?>
<!DOCTYPE svg PUBLIC "-//W3C//DTD SVG 20010904//EN"
 "http://www.w3.org/TR/2001/REC-SVG-20010904/DTD/svg10.dtd">
<svg version="1.0" xmlns="http://www.w3.org/2000/svg"
 width="512.000000pt" height="512.000000pt" viewBox="0 0 512.000000 512.000000"
 preserveAspectRatio="xMidYMid meet">
<metadata>
Created by potrace 1.14, written by Peter Selinger 2001-2017
</metadata>
<g transform="translate(0.000000,512.000000) scale(0.100000,-0.100000)"
fill="#000000" stroke="none">
<path d="M2340 5109 c-599 -51 -1150 -309 -1581 -739 -207 -207 -340 -385
-465 -624 -416 -799 -385 -1756 83 -2520 205 -333 528 -655 858 -853 311 -187
618 -296 990 -349 172 -25 537 -25 700 0 555 85 1055 336 1445 726 354 354
603 816 700 1300 21 105 24 133 41 330 43 504 -91 1056 -367 1511 -138 229
-400 524 -604 681 -525 404 -1156 592 -1800 537z m-179 -1009 c96 -49 189
-186 223 -330 20 -84 21 -258 1 -334 -34 -128 -104 -229 -190 -271 -56 -27
-146 -25 -204 4 -117 61 -207 207 -237 386 -52 306 103 589 312 571 28 -2 71
-14 95 -26z m1019 -6 c194 -105 252 -482 115 -743 -68 -130 -169 -204 -275
-204 -276 0 -405 481 -214 799 44 74 77 109 132 141 84 50 160 52 242 7z
m-1856 -845 c90 -42 179 -163 211 -286 20 -75 18 -205 -3 -265 -103 -286 -427
-212 -526 121 -20 69 -21 202 -1 269 19 64 69 130 120 159 53 30 138 31 199 2z
m2664 0 c187 -91 189 -454 3 -640 -139 -138 -308 -112 -390 61 -23 48 -26 68
-26 160 0 122 23 201 85 291 40 59 114 121 164 137 53 17 117 13 164 -9z
m-1343 -269 c221 -15 396 -82 561 -214 158 -126 273 -281 444 -596 35 -63 78
-142 96 -175 106 -195 89 -461 -44 -675 -118 -190 -289 -296 -514 -320 -123
-12 -184 0 -367 74 -251 103 -261 103 -513 2 -199 -79 -252 -90 -380 -76 -172
18 -293 74 -408 190 -239 240 -287 578 -122 858 21 37 72 126 112 197 200 357
370 540 603 651 105 49 212 75 392 92 6 1 69 -3 140 -8z"/>
</g>
</svg>
